Coordinates
version=1
nRows=24
nColumns=22
inDegrees=yes

Units are S.I. units (second, meters, Newtons, ...)
If the header above contains a line with 'inDegrees', this indicates whether rotational values are in degrees (yes) or radians (no).

endheader
time	pelvis_tilt	pelvis_list	pelvis_rotation	pelvis_tx	pelvis_ty	pelvis_tz	hip_flexion_r	hip_adduction_r	hip_rotation_r	knee_angle_r	ankle_angle_r	subtalar_angle_r	hip_flexion_l	hip_adduction_l	hip_rotation_l	knee_angle_l	ankle_angle_l	subtalar_angle_l	lumbar_extension	lumbar_bending	lumbar_rotation
      3.83000000	     -9.73970262	      1.88863365	     -5.45085501	      0.31846725	      0.97471420	      0.33546658	     23.63536555	     -4.98510150	     -1.03381497	    -63.77884892	      2.43677223	      4.56406235	     23.93551560	      5.14583874	     -2.79751638	    -24.21117819	     16.97940362	     -3.41641613	      1.65243307	     -1.02996363	      3.07300608
      3.84000000	     -9.50472331	      1.95550040	     -5.33901805	      0.32347749	      0.97499898	      0.33430365	     24.17071189	     -5.33612914	     -1.25521126	    -64.12070619	      3.39487993	      3.84113966	     23.36103320	      5.40867429	     -2.63127952	    -24.17383433	     17.25290183	     -3.53706617	      1.45060973	     -1.12153976	      2.83546879
      3.85000000	     -9.28162965	      1.98668625	     -5.21692377	      0.32843423	      0.97531949	      0.33319562	     24.67060568	     -5.61856417	     -1.47352375	    -64.23417332	      4.41496336	      3.04726160	     22.79957015	      5.62675393	     -2.46767229	    -24.14081209	     17.49028504	     -3.66222289	      1.25593289	     -1.17203252	      2.59695962
      3.86000000	     -9.09008484	      1.99493183	     -5.07950630	      0.33332300	      0.97563934	      0.33215016	     25.16463046	     -5.83857138	     -1.68319876	    -64.13463918	      5.46108174	      2.30464252	     22.26487311	      5.81234378	     -2.29673385	    -24.09279068	     17.70915896	     -3.76575509	      1.09550569	     -1.19915492	      2.35565348
      3.87000000	     -8.92424609	      1.98380164	     -4.93360644	      0.33813073	      0.97594738	      0.33117117	     25.65106137	     -5.99262058	     -1.86785015	    -63.83521411	      6.52297648	      1.62121169	     21.75863043	      5.96792593	     -2.12464178	    -24.04384850	     17.91506850	     -3.85214232	      0.95524555	     -1.20688301	      2.11720433
      3.88000000	     -8.78188986	      1.95123047	     -4.79538413	      0.34286545	      0.97623924	      0.33029220	     26.13009717	     -6.07674365	     -2.02723138	    -63.34382122	      7.58254228	      0.98864537	     21.27810383	      6.07965769	     -1.98808532	    -23.99311681	     18.12849953	     -3.92793134	      0.83527593	     -1.19293979	      1.90684119
      3.89000000	     -8.66775950	      1.91498688	     -4.66372765	      0.34751086	      0.97649209	      0.32950110	     26.61767064	     -6.10563105	     -2.14339725	    -62.68429719	      8.63519603	      0.50322690	     20.82723423	      6.17299315	     -1.85211166	    -23.93403501	     18.33859909	     -3.97589314	      0.73929055	     -1.17748597	      1.69561007
      3.90000000	     -8.56741447	      1.86926404	     -4.54918971	      0.35209529	      0.97672315	      0.32880139	     27.09590850	     -6.08538963	     -2.23933102	    -61.86448232	      9.66360749	      0.04090415	     20.38680489	      6.23708810	     -1.75137803	    -23.86084666	     18.55462419	     -4.02022701	      0.65127208	     -1.15420159	      1.53971459
      3.91000000	     -8.49473964	      1.83308197	     -4.44714836	      0.35658940	      0.97688422	      0.32817662	     27.59329429	     -6.03682366	     -2.30123367	    -60.91641231	     10.67657092	     -0.29597064	     19.98280607	      6.29430649	     -1.67906744	    -23.78866501	     18.77630801	     -4.04539189	      0.58560362	     -1.14090896	      1.37451717
      3.92000000	     -8.42559491	      1.79647942	     -4.35746847	      0.36104220	      0.97703274	      0.32760052	     28.07261678	     -5.96877360	     -2.36275427	    -59.83782308	     11.62675973	     -0.66427706	     19.57313202	      6.34308802	     -1.61012847	    -23.69416468	     18.98793834	     -4.07353851	      0.51500133	     -1.12688596	      1.26037036
      3.93000000	     -8.41564884	      1.78061314	     -4.30335155	      0.36539466	      0.97704655	      0.32712815	     28.62211962	     -5.87803484	     -2.36810739	    -58.67700125	     12.54176462	     -0.83371688	     19.23885752	      6.38894693	     -1.59322121	    -23.60817318	     19.19278404	     -4.08198473	      0.50584891	     -1.13300915	      1.18333528
      3.94000000	     -8.34881865	      1.75787904	     -4.21825534	      0.36973571	      0.97713073	      0.32662072	     29.07584085	     -5.80933371	     -2.45194615	    -57.41150154	     13.36927754	     -1.19899753	     18.84256942	      6.44048308	     -1.55752770	    -23.52012814	     19.41326964	     -4.11721042	      0.41673966	     -1.13215647	      1.03665787
      3.95000000	     -8.35691518	      1.76202882	     -4.18360966	      0.37397953	      0.97706575	      0.32622341	     29.62558969	     -5.72430003	     -2.47159106	    -56.09895656	     14.12175872	     -1.33206570	     18.53073237	      6.49657370	     -1.56129832	    -23.42571906	     19.59647333	     -4.12794361	      0.40978435	     -1.15753662	      0.99384374
      3.96000000	     -8.35587572	      1.77109858	     -4.14268017	      0.37817217	      0.97698279	      0.32583609	     30.15236547	     -5.65306555	     -2.52794294	    -54.73427674	     14.79285143	     -1.46332850	     18.21926494	      6.55844512	     -1.56965296	    -23.34421450	     19.78823702	     -4.14528789	      0.37912340	     -1.18533140	      0.91994154
      3.97000000	     -8.35448982	      1.78380023	     -4.10467845	      0.38232277	      0.97688263	      0.32548949	     30.66883275	     -5.58676469	     -2.61006535	    -53.33164138	     15.36610356	     -1.56981315	     17.90936503	      6.62222141	     -1.57233158	    -23.26164674	     19.97309776	     -4.16647039	      0.33821576	     -1.21717467	      0.84641176
      3.98000000	     -8.32818158	      1.78425823	     -4.05277081	      0.38642742	      0.97679783	      0.32513882	     31.14274532	     -5.52953020	     -2.76297086	    -51.90294657	     15.85242248	     -1.67626877	     17.58611469	      6.67697794	     -1.57088543	    -23.20038493	     20.17327116	     -4.21069198	      0.25494212	     -1.23286070	      0.74834123
      3.99000000	     -8.34078643	      1.81325644	     -4.03766547	      0.39045823	      0.97663680	      0.32489279	     31.67118707	     -5.46251206	     -2.86482575	    -50.48071433	     16.24285609	     -1.70635773	     17.29699126	      6.75303523	     -1.54734239	    -23.11239766	     20.33481626	     -4.23275326	      0.20994001	     -1.27926944	      0.70759286
      4.00000000	     -8.33071126	      1.81520618	     -3.99492826	      0.39445742	      0.97648706	      0.32462673	     32.15549852	     -5.40091425	     -3.07288793	    -49.05518729	     16.56718440	     -1.71705822	     17.00296666	      6.80445875	     -1.52663970	    -23.06207709	     20.53063011	     -4.28921877	      0.12635081	     -1.29226354	      0.61737493
      4.01000000	     -8.34566416	      1.84671934	     -3.98690251	      0.39838818	      0.97628140	      0.32445773	     32.68089584	     -5.33349554	     -3.24004340	    -47.65732965	     16.80437028	     -1.71223844	     16.72951099	      6.87952817	     -1.49081363	    -22.98879022	     20.69107315	     -4.32349264	      0.06629126	     -1.33774484	      0.58417799
      4.02000000	     -8.34517222	      1.84429503	     -3.95299484	      0.40228283	      0.97608605	      0.32428712	     33.17026238	     -5.25496090	     -3.50501822	    -46.27099854	     16.93660968	     -1.69916515	     16.45796005	      6.92054108	     -1.45756943	    -22.95312884	     20.87723035	     -4.39919520	     -0.02365766	     -1.34209545	      0.50208286
      4.03000000	     -8.36015275	      1.87806035	     -3.95805863	      0.40613506	      0.97585091	      0.32422677	     33.69085164	     -5.17200866	     -3.71793732	    -44.92718646	     16.96910594	     -1.68296272	     16.19288615	      6.99094460	     -1.41978176	    -22.88952985	     21.02701257	     -4.44439340	     -0.09625086	     -1.39109444	      0.48099986
      4.04000000	     -8.35926539	      1.87427942	     -3.93758930	      0.40995109	      0.97563379	      0.32416375	     34.17227481	     -5.06593914	     -4.00701118	    -43.60225073	     16.85789400	     -1.67090538	     15.93140505	      7.01998695	     -1.40476029	    -22.86695797	     21.19969635	     -4.53144798	     -0.20062473	     -1.39111808	      0.41587000
      4.05000000	     -8.36802836	      1.91076022	     -3.95075675	      0.41374440	      0.97538756	      0.32420794	     34.67484552	     -4.95888903	     -4.23382425	    -42.32649893	     16.63364836	     -1.63965170	     15.66624723	      7.08465356	     -1.37955680	    -22.80998977	     21.34400657	     -4.57360136	     -0.29170231	     -1.44380888	      0.41093283
      4.06000000	     -8.36464173	      1.92376050	     -3.95471107	      0.41752783	      0.97515674	      0.32428724	     35.14273903	     -4.82470214	     -4.48869042	    -41.07377235	     16.27032956	     -1.60270611	     15.39970302	      7.11781849	     -1.38329214	    -22.77787283	     21.50404125	     -4.62167496	     -0.40248583	     -1.46802625	      0.38884678
